<?xml version="1.0" standalone="no"?>
<!DOCTYPE svg PUBLIC "-//W3C//DTD SVG 20010904//EN"
 "http://www.w3.org/TR/2001/REC-SVG-20010904/DTD/svg10.dtd">
<svg version="1.0" xmlns="http://www.w3.org/2000/svg"
 width="407.000000pt" height="434.000000pt" viewBox="0 0 407.000000 434.000000"
 preserveAspectRatio="xMidYMid meet">

<g transform="translate(0.000000,434.000000) scale(0.100000,-0.100000)"
fill="#000000" stroke="none">
<path d="M2945 4327 c-64 -22 -97 -42 -141 -89 -73 -75 -89 -118 -89 -233 0
-89 3 -106 27 -150 32 -61 104 -130 163 -156 42 -19 43 -20 34 -52 -15 -53
-11 -86 16 -112 55 -56 160 -15 264 102 93 104 159 283 148 400 -11 119 -88
228 -194 275 -57 25 -174 33 -228 15z m180 -144 c59 -30 95 -80 108 -150 12
-62 -36 -198 -100 -286 l-37 -50 -8 29 c-10 39 -42 67 -103 89 -154 56 -193
244 -71 341 66 54 140 63 211 27z"/>
<path d="M3655 4331 c-96 -25 -172 -87 -217 -179 -29 -59 -33 -76 -33 -147 0
-71 4 -88 33 -147 36 -74 90 -127 158 -155 l43 -18 -6 -63 c-5 -56 -4 -65 17
-87 28 -30 85 -34 133 -8 49 25 154 131 192 193 18 30 45 92 60 138 64 200 1
375 -163 449 -59 28 -161 39 -217 24z m131 -136 c80 -23 144 -107 144 -186 0
-70 -53 -206 -105 -268 -30 -35 -45 -39 -45 -13 0 33 -30 61 -89 83 -100 36
-151 102 -151 196 0 88 51 158 139 189 46 17 48 17 107 -1z"/>
<path d="M1259 4025 c-115 -22 -231 -62 -261 -90 -54 -50 -77 -125 -59 -191 7
-26 67 -112 175 -250 176 -226 196 -244 278 -244 234 -1 394 -117 437 -318 6
-29 11 -67 11 -83 0 -22 10 -41 34 -65 l34 -34 335 0 335 0 31 29 c30 28 31
31 31 119 0 282 -119 567 -328 784 -160 166 -327 265 -552 325 -121 32 -379
41 -501 18z m462 -149 c428 -109 745 -482 785 -920 l7 -76 -270 0 -270 0 -12
73 c-16 98 -68 201 -139 272 -98 99 -198 143 -351 152 -110 7 -81 -17 -270
227 -80 104 -131 179 -131 193 0 29 27 46 115 72 107 32 178 40 315 36 90 -3
152 -11 221 -29z"/>
<path d="M512 3496 c-82 -70 -173 -338 -188 -559 -7 -100 5 -145 45 -167 13
-6 143 -10 351 -10 362 0 377 2 397 57 14 36 37 179 37 220 -1 47 -21 71 -171
200 -338 291 -327 283 -387 283 -43 0 -61 -5 -84 -24z m326 -315 c158 -134
182 -158 177 -178 -3 -13 -8 -43 -12 -68 l-6 -45 -271 0 -272 0 8 80 c11 112
43 230 90 332 l41 88 31 -27 c17 -14 113 -96 214 -182z"/>
<path d="M726 2354 c-87 -21 -193 -81 -262 -149 -68 -67 -105 -125 -143 -224
l-25 -66 -6 -460 c-6 -510 -5 -500 -75 -596 -21 -27 -67 -68 -106 -95 -83 -55
-100 -79 -107 -143 -4 -44 6 -72 97 -292 56 -134 109 -254 117 -267 19 -29 88
-61 130 -62 40 0 170 64 264 131 185 131 345 344 420 559 47 138 61 233 67
475 5 196 8 235 24 267 26 51 84 95 141 108 30 6 217 10 479 10 472 0 473 0
504 60 23 45 22 660 -1 700 -38 63 -3 60 -766 59 -562 -1 -704 -3 -752 -15z
m1404 -394 l0 -279 -457 -3 c-449 -3 -459 -3 -506 -25 -58 -27 -102 -63 -140
-113 -54 -75 -60 -105 -67 -380 -8 -281 -18 -337 -85 -493 -80 -183 -246 -371
-420 -474 -98 -58 -119 -63 -136 -32 -15 29 -189 442 -189 450 0 3 27 23 59
43 105 64 185 172 216 291 12 49 15 133 15 467 0 258 4 426 11 460 26 123 121
253 228 312 101 55 102 55 814 55 l657 1 0 -280z"/>
</g>
</svg>
